<?xml version="1.0" encoding="utf-8"?>
<!-- Generator: Adobe Illustrator 14.0.0, SVG Export Plug-In . SVG Version: 6.00 Build 43363)  -->
<!DOCTYPE svg PUBLIC "-//W3C//DTD SVG 1.1//EN" "http://www.w3.org/Graphics/SVG/1.1/DTD/svg11.dtd">
<svg version="1.1" id="Layer_1" xmlns="http://www.w3.org/2000/svg" xmlns:xlink="http://www.w3.org/1999/xlink" x="0px" y="0px"
	 width="283.465px" height="283.465px" viewBox="0 0 283.465 283.465" enable-background="new 0 0 283.465 283.465"
	 xml:space="preserve">
<path fill="#DD4814" d="M181.819,101.645c-10.707-10.708-24.942-16.605-40.085-16.605c-15.144,0-29.38,5.897-40.087,16.605
	c-10.709,10.709-16.607,24.945-16.607,40.088c0,15.142,5.898,29.38,16.607,40.087c10.708,10.708,24.944,16.605,40.088,16.605
	c15.143,0,29.378-5.897,40.084-16.605c10.709-10.706,16.607-24.943,16.607-40.087S192.527,112.352,181.819,101.645z
	 M175.748,181.418c0,0.782-0.635,1.417-1.417,1.417h-65.197c-0.782,0-1.417-0.635-1.417-1.417v-79.371
	c0-0.783,0.635-1.417,1.417-1.417h65.197c0.782,0,1.417,0.635,1.417,1.417V181.418z M170.079,119.764h-56.693v-7.086h56.693V119.764
	L170.079,119.764z M170.079,133.937h-56.693v-7.086h56.693V133.937L170.079,133.937z M170.079,148.11h-56.693v-7.086h56.693V148.11
	L170.079,148.11z M150.236,162.283h-36.851v-7.086h36.851V162.283L150.236,162.283z"/>
</svg>
