<?xml version="1.0" encoding="utf-8"?>
<!-- Generator: Adobe Illustrator 14.0.0, SVG Export Plug-In . SVG Version: 6.00 Build 43363)  -->
<!DOCTYPE svg PUBLIC "-//W3C//DTD SVG 1.1//EN" "http://www.w3.org/Graphics/SVG/1.1/DTD/svg11.dtd">
<svg version="1.1" id="Layer_1" xmlns="http://www.w3.org/2000/svg" xmlns:xlink="http://www.w3.org/1999/xlink" x="0px" y="0px"
	 width="283.465px" height="283.465px" viewBox="0 0 283.465 283.465" enable-background="new 0 0 283.465 283.465"
	 xml:space="preserve">
<g>
	<path fill="#DD4814" d="M146.514,118.645l3.97-1.645c1.81-0.75,2.669-2.823,1.919-4.632c-0.749-1.809-2.822-2.668-4.632-1.919
		l-3.986,1.652c-0.961-3.003-1.593-6.148-1.864-9.396h33.813l-23.892,23.891C149.782,124.162,147.991,121.498,146.514,118.645"/>
	<path fill="#DD4814" d="M180.746,141.521c-9.062-0.753-17.326-4.354-23.89-9.912l23.89-23.891V141.521z"/>
	<path fill="#DD4814" d="M197.047,154.418c-5.771,25.206-28.335,44.007-55.289,44.008c-31.324,0-56.719-25.396-56.719-56.719
		c0-26.944,18.787-49.5,43.977-55.282v0.006c-0.938,4.087-1.437,8.341-1.437,12.71c0,31.274,25.444,56.72,56.717,56.72
		c4.38,0,8.646-0.5,12.744-1.443L197.047,154.418z"/>
	<path fill="#DD4814" d="M187.861,108.66c6.234,8.684,10.078,19.202,10.563,30.589l-0.004-0.001
		c-3.357,1.185-6.902,1.968-10.585,2.274v-32.851L187.861,108.66z"/>
	<path fill="#DD4814" d="M141.917,95.614c0.305-3.676,1.083-7.217,2.265-10.571l0.001-0.004
		c11.249,0.473,21.649,4.222,30.274,10.318l0.316,0.257H141.917z"/>
</g>
</svg>
