<?xml version="1.0" encoding="utf-8"?>
<!-- Generator: Adobe Illustrator 14.0.0, SVG Export Plug-In . SVG Version: 6.00 Build 43363)  -->
<!DOCTYPE svg PUBLIC "-//W3C//DTD SVG 1.1//EN" "http://www.w3.org/Graphics/SVG/1.1/DTD/svg11.dtd">
<svg version="1.1" id="Layer_1" xmlns="http://www.w3.org/2000/svg" xmlns:xlink="http://www.w3.org/1999/xlink" x="0px" y="0px"
	 width="283.465px" height="283.465px" viewBox="0 0 283.465 283.465" enable-background="new 0 0 283.465 283.465"
	 xml:space="preserve">
<g>
	<path fill="#DD4814" d="M141.732,198.424c-31.26,0-56.691-25.433-56.691-56.692c0-31.261,25.432-56.692,56.691-56.692
		c31.259,0,56.693,25.432,56.693,56.692C198.425,172.991,172.991,198.424,141.732,198.424"/>
	<path fill="#DD4814" d="M78.083,145.812c1.299,20.461,12.287,38.333,28.418,49.062l0.002-0.004l-39.398,22.748l10.384-38.738
		l-38.732-10.358l39.332-22.709L78.083,145.812z"/>
	<path fill="#DD4814" d="M113.378,198.855c8.546,4.258,18.174,6.656,28.354,6.656c10.173,0,19.8-2.396,28.343-6.651l-0.002-0.005
		v45.634l-28.355-28.362l-28.337,28.362v-45.637L113.378,198.855z"/>
</g>
</svg>
