<?xml version="1.0" encoding="utf-8"?>
<!-- Generator: Adobe Illustrator 14.0.0, SVG Export Plug-In . SVG Version: 6.00 Build 43363)  -->
<!DOCTYPE svg PUBLIC "-//W3C//DTD SVG 1.1//EN" "http://www.w3.org/Graphics/SVG/1.1/DTD/svg11.dtd">
<svg version="1.1" id="Layer_1" xmlns="http://www.w3.org/2000/svg" xmlns:xlink="http://www.w3.org/1999/xlink" x="0px" y="0px"
	 width="283.465px" height="283.465px" viewBox="0 0 283.465 283.465" enable-background="new 0 0 283.465 283.465"
	 xml:space="preserve">
<path fill="#DD4814" d="M141.732,85.04c-31.261,0-56.693,25.432-56.693,56.692s25.432,56.694,56.693,56.694
	s56.693-25.434,56.693-56.694S172.993,85.04,141.732,85.04z M168.303,157.643h-53.14c-8.806,0-15.945-7.138-15.945-15.943
	c0-8.476,6.611-15.401,14.956-15.913c-3.73-7.481-1.037-16.671,6.302-20.909c7.339-4.236,16.642-1.974,21.257,4.998
	c4.616-6.971,13.918-9.233,21.258-4.996c7.338,4.237,10.03,13.425,6.3,20.908c8.347,0.512,14.956,7.437,14.956,15.913
	C184.247,150.505,177.108,157.643,168.303,157.643z M124.016,134.961c0,1.957-1.586,3.543-3.543,3.543
	c-1.957,0-3.543-1.586-3.543-3.543c0-1.957,1.586-3.543,3.543-3.543C122.43,131.417,124.016,133.004,124.016,134.961z
	 M134.646,134.961c0,1.957-1.586,3.543-3.543,3.543s-3.543-1.586-3.543-3.543c0-1.957,1.586-3.543,3.543-3.543
	S134.646,133.004,134.646,134.961z M145.275,134.961c0,1.957-1.586,3.543-3.543,3.543s-3.543-1.586-3.543-3.543
	c0-1.957,1.586-3.543,3.543-3.543S145.275,133.004,145.275,134.961z M155.905,134.961c0,1.957-1.586,3.543-3.544,3.543
	c-1.956,0-3.543-1.586-3.543-3.543c0-1.957,1.587-3.543,3.543-3.543C154.319,131.417,155.905,133.004,155.905,134.961z
	 M166.535,134.961c0,1.957-1.586,3.543-3.544,3.543c-1.956,0-3.543-1.586-3.543-3.543c0-1.957,1.587-3.543,3.543-3.543
	C164.949,131.417,166.535,133.004,166.535,134.961z M124.016,145.591c0,1.956-1.586,3.543-3.543,3.543
	c-1.957,0-3.543-1.587-3.543-3.543c0-1.957,1.586-3.543,3.543-3.543C122.43,142.047,124.016,143.634,124.016,145.591z
	 M131.103,149.134c-1.957,0-3.543-1.587-3.543-3.543c0-1.957,1.586-3.543,3.543-3.543h21.259c1.958,0,3.544,1.586,3.544,3.543
	c0,1.956-1.586,3.543-3.544,3.543H131.103z M166.535,145.591c0,1.956-1.586,3.543-3.544,3.543c-1.956,0-3.543-1.587-3.543-3.543
	c0-1.957,1.587-3.543,3.543-3.543C164.949,142.047,166.535,143.634,166.535,145.591z"/>
</svg>
