<?xml version="1.0" encoding="utf-8"?>
<!-- Generator: Adobe Illustrator 14.0.0, SVG Export Plug-In . SVG Version: 6.00 Build 43363)  -->
<!DOCTYPE svg PUBLIC "-//W3C//DTD SVG 1.1//EN" "http://www.w3.org/Graphics/SVG/1.1/DTD/svg11.dtd">
<svg version="1.1" id="Layer_1" xmlns="http://www.w3.org/2000/svg" xmlns:xlink="http://www.w3.org/1999/xlink" x="0px" y="0px"
	 width="283.465px" height="283.465px" viewBox="0 0 283.465 283.465" enable-background="new 0 0 283.465 283.465"
	 xml:space="preserve">
<path fill="#DD4814" d="M141.733,85.04c-31.311,0-56.693,25.382-56.693,56.693c0,31.311,25.383,56.691,56.693,56.691
	s56.691-25.381,56.691-56.691C198.425,110.422,173.044,85.04,141.733,85.04z M141.732,112.146c6.85,0,12.401,5.553,12.401,12.4
	c0,6.852-5.552,12.403-12.401,12.403c-6.848,0-12.401-5.552-12.401-12.403C129.331,117.698,134.885,112.146,141.732,112.146z
	 M166.538,171.319H116.93c-1.956,0-3.544-1.588-3.544-3.543c0-15.629,12.717-28.348,28.347-28.348s28.347,12.719,28.347,28.348
	C170.079,169.731,168.493,171.319,166.538,171.319z M151.654,157.84c0,5.47-4.451,9.921-9.921,9.921
	c-5.471,0-9.922-4.451-9.922-9.921c0-5.133,3.917-9.366,8.919-9.871v-2.925c0-0.399,0.241-0.762,0.612-0.917
	c0.37-0.152,0.796-0.068,1.081,0.217l4.855,4.855c0.389,0.388,0.389,1.017,0,1.403l-4.855,4.855
	c-0.189,0.19-0.443,0.291-0.702,0.291c-0.128,0-0.257-0.023-0.379-0.075c-0.371-0.153-0.612-0.517-0.612-0.917v-2.779
	c-2.806,0.479-4.95,2.922-4.95,5.862c0,3.281,2.67,5.951,5.953,5.951c3.282,0,5.952-2.67,5.952-5.951
	c0-1.097,0.889-1.985,1.984-1.985S151.654,156.743,151.654,157.84z"/>
</svg>
