<?xml version="1.0" encoding="utf-8"?>
<!-- Generator: Adobe Illustrator 14.0.0, SVG Export Plug-In . SVG Version: 6.00 Build 43363)  -->
<!DOCTYPE svg PUBLIC "-//W3C//DTD SVG 1.1//EN" "http://www.w3.org/Graphics/SVG/1.1/DTD/svg11.dtd">
<svg version="1.1" id="Layer_1" xmlns="http://www.w3.org/2000/svg" xmlns:xlink="http://www.w3.org/1999/xlink" x="0px" y="0px"
	 width="283.465px" height="283.465px" viewBox="0 0 283.465 283.465" enable-background="new 0 0 283.465 283.465"
	 xml:space="preserve">
<path fill="#DD4814" d="M141.733,85.039c-31.261,0-56.694,25.432-56.694,56.693c0,31.261,25.433,56.694,56.694,56.694
	c31.26,0,56.692-25.433,56.692-56.694C198.425,110.471,172.993,85.039,141.733,85.039z M124.008,164.77
	c-3.914,0-7.086-3.172-7.086-7.086s3.173-7.087,7.086-7.087s7.086,3.173,7.086,7.087S127.921,164.77,124.008,164.77z
	 M159.366,164.77c-3.913,0-7.086-3.172-7.086-7.086s3.173-7.087,7.086-7.087c3.914,0,7.088,3.173,7.088,7.087
	S163.28,164.77,159.366,164.77z M169.99,157.555c-0.069-5.81-4.797-10.501-10.624-10.501c-5.855,0-10.604,4.737-10.628,10.588
	h-14.103c-0.023-5.851-4.771-10.588-10.628-10.588c-5.82,0-10.541,4.68-10.622,10.479c-7.956-0.897-14.142-7.639-14.142-15.834
	c0-8.476,6.611-15.4,14.957-15.913c-3.731-7.48-1.037-16.671,6.302-20.909c7.339-4.236,16.643-1.974,21.258,4.998
	c4.615-6.971,13.918-9.233,21.258-4.996c7.338,4.236,10.03,13.425,6.301,20.907c8.345,0.513,14.955,7.437,14.955,15.913
	C184.274,149.943,178.017,156.724,169.99,157.555z"/>
</svg>
