<?xml version="1.0" encoding="utf-8"?>
<!-- Generator: Adobe Illustrator 14.0.0, SVG Export Plug-In . SVG Version: 6.00 Build 43363)  -->
<!DOCTYPE svg PUBLIC "-//W3C//DTD SVG 1.1//EN" "http://www.w3.org/Graphics/SVG/1.1/DTD/svg11.dtd">
<svg version="1.1" id="Layer_1" xmlns="http://www.w3.org/2000/svg" xmlns:xlink="http://www.w3.org/1999/xlink" x="0px" y="0px"
	 width="283.465px" height="283.465px" viewBox="0 0 283.465 283.465" enable-background="new 0 0 283.465 283.465"
	 xml:space="preserve">
<path fill="#DD4814" d="M151.758,131.678c2.677,2.676,4.151,6.236,4.151,10.022c0,3.786-1.475,7.344-4.151,10.021
	s-6.235,4.151-10.02,4.151c-3.786,0-7.345-1.475-10.021-4.151c-2.677-2.678-4.152-6.236-4.152-10.021s1.475-7.343,4.153-10.021
	c2.677-2.678,6.236-4.152,10.021-4.152C145.522,127.527,149.081,129.001,151.758,131.678z M181.819,181.819
	c-22.141,22.141-58.033,22.141-80.175,0c-22.139-22.143-22.14-58.033,0-80.174c22.142-22.14,58.036-22.142,80.175-0.002
	C203.96,123.786,203.96,159.679,181.819,181.819z M184.217,148.704v-14.172h-15.048c-0.668-2.572-1.69-5.029-3.052-7.312
	l10.656-10.658l-10.022-10.021l-10.69,10.69c-2.273-1.337-4.718-2.345-7.274-2.997V99.099h-14.173l0,15.158
	c-2.547,0.657-4.983,1.666-7.248,3.004l-10.719-10.72l-10.023,10.021l10.708,10.708c-1.347,2.268-2.362,4.708-3.024,7.261H99.18
	v14.172h15.081c0.651,2.573,1.665,5.033,3.009,7.321l-10.648,10.647l10.023,10.021l10.614-10.614
	c2.294,1.368,4.766,2.396,7.353,3.062l0,14.994h14.173v-14.972c2.597-0.662,5.077-1.688,7.382-3.057l10.585,10.586l10.022-10.021
	l-10.597-10.599c1.358-2.301,2.381-4.778,3.037-7.37H184.217z"/>
</svg>
