<?xml version="1.0" encoding="utf-8"?>
<!-- Generator: Adobe Illustrator 14.0.0, SVG Export Plug-In . SVG Version: 6.00 Build 43363)  -->
<!DOCTYPE svg PUBLIC "-//W3C//DTD SVG 1.1//EN" "http://www.w3.org/Graphics/SVG/1.1/DTD/svg11.dtd">
<svg version="1.1" id="Layer_1" xmlns="http://www.w3.org/2000/svg" xmlns:xlink="http://www.w3.org/1999/xlink" x="0px" y="0px"
	 width="283.465px" height="283.465px" viewBox="0 0 283.465 283.465" enable-background="new 0 0 283.465 283.465"
	 xml:space="preserve">
<path fill="#DD4814" d="M172.166,189.588c-9.004,5.745-19.461,8.837-30.398,8.837c-10.956,0-21.429-3.102-30.443-8.863
	c1.294-1.312,2.048-3.096,2.048-4.987v-14.617h-3.591c-1.961,0-3.551-1.59-3.551-3.551s1.59-3.551,3.551-3.551h3.591v-14.212h17.756
	c3.806,0,6.912-2.993,7.094-6.755c0.007-0.121,0.01-0.243,0.01-0.363c0-20.142-10.542-37.856-26.389-47.951
	c8.896-5.551,19.178-8.535,29.924-8.535c10.731,0,21,2.976,29.887,8.513c-15.865,10.09-26.422,27.816-26.422,47.972
	c0,0.119,0.003,0.24,0.01,0.361c0.18,3.762,3.287,6.757,7.094,6.757h17.757v14.212h3.591c1.961,0,3.551,1.59,3.551,3.551
	s-1.59,3.551-3.551,3.551h-3.591v14.617C170.093,186.479,170.855,188.274,172.166,189.588z M184.334,123.738
	c0-1.961-1.588-3.553-3.55-3.553c-1.961,0-3.552,1.592-3.552,3.553s1.591,3.549,3.552,3.549
	C182.746,127.287,184.334,125.699,184.334,123.738z M102.68,120.186c-1.961,0-3.55,1.592-3.55,3.553s1.589,3.549,3.55,3.549
	s3.553-1.588,3.553-3.549S104.641,120.186,102.68,120.186z"/>
</svg>
