<?xml version="1.0" encoding="utf-8"?>
<!-- Generator: Adobe Illustrator 14.0.0, SVG Export Plug-In . SVG Version: 6.00 Build 43363)  -->
<!DOCTYPE svg PUBLIC "-//W3C//DTD SVG 1.1//EN" "http://www.w3.org/Graphics/SVG/1.1/DTD/svg11.dtd">
<svg version="1.1" id="Layer_1" xmlns="http://www.w3.org/2000/svg" xmlns:xlink="http://www.w3.org/1999/xlink" x="0px" y="0px"
	 width="283.465px" height="283.465px" viewBox="0 0 283.465 283.465" enable-background="new 0 0 283.465 283.465"
	 xml:space="preserve">
<path fill="#DD4814" d="M141.733,85.039c-31.262,0-56.693,25.432-56.693,56.692c0,31.262,25.432,56.695,56.693,56.695
	c31.259,0,56.692-25.433,56.692-56.695C198.425,110.471,172.992,85.039,141.733,85.039z M161.588,153.334l-17.345,17.345
	c-1.383,1.384-3.625,1.384-5.01,0l-17.172-17.173c-0.75-0.65-1.223-1.608-1.223-2.678c0-1.956,1.586-3.544,3.544-3.544h0.013h10.25
	v-0.001v-28.446c0-3.914,3.174-7.086,7.086-7.086c3.914,0,7.087,3.172,7.087,7.086v28.447h10.264c1.432,0,2.725,0.863,3.272,2.189
	C162.904,150.797,162.6,152.322,161.588,153.334z"/>
</svg>
