<?xml version="1.0" encoding="utf-8"?>
<!-- Generator: Adobe Illustrator 14.0.0, SVG Export Plug-In . SVG Version: 6.00 Build 43363)  -->
<!DOCTYPE svg PUBLIC "-//W3C//DTD SVG 1.1//EN" "http://www.w3.org/Graphics/SVG/1.1/DTD/svg11.dtd">
<svg version="1.1" id="Layer_1" xmlns="http://www.w3.org/2000/svg" xmlns:xlink="http://www.w3.org/1999/xlink" x="0px" y="0px"
	 width="283.465px" height="283.465px" viewBox="0 0 283.465 283.465" enable-background="new 0 0 283.465 283.465"
	 xml:space="preserve">
<path fill="#DD4814" d="M99.232,155.911v23.326c-9.171-10.364-14.193-23.546-14.193-37.504c0-15.143,5.897-29.379,16.605-40.087
	c10.708-10.708,24.945-16.606,40.088-16.606c14.651,0,28.442,5.534,39.021,15.59v48.194c0,3.312-1.289,6.425-3.632,8.768
	c-2.342,2.342-5.457,3.632-8.771,3.632c-6.836,0-12.399-5.563-12.401-12.401v-31.888c0.002-5.206-2.025-10.101-5.706-13.782
	s-8.575-5.708-13.781-5.708c-10.743,0-19.485,8.742-19.488,19.489v18.014C106.908,136.623,99.232,145.368,99.232,155.911z
	 M198.426,141.733c0-12.002-3.718-23.428-10.586-32.986v40.074c0.002,5.205-2.024,10.099-5.706,13.78
	c-3.681,3.681-8.575,5.708-13.782,5.708c-10.742,0-19.484-8.742-19.487-19.486v-31.891c0.001-3.313-1.289-6.428-3.631-8.77
	c-2.343-2.342-5.457-3.632-8.771-3.632c-6.836,0-12.399,5.564-12.401,12.403v18.022c10.041,1.699,17.69,10.431,17.69,20.956v42.515
	c15.136-0.005,29.366-5.901,40.068-16.604C192.528,171.113,198.426,156.876,198.426,141.733z M120.487,166.461
	c7.815,0,14.173-6.358,14.173-14.173h-7.087c0,3.907-3.179,7.086-7.086,7.086c-3.907,0-7.086-3.179-7.086-7.086h-7.086
	C106.314,160.103,112.672,166.461,120.487,166.461L120.487,166.461z"/>
</svg>
