<?xml version="1.0" encoding="utf-8"?>
<!-- Generator: Adobe Illustrator 14.0.0, SVG Export Plug-In . SVG Version: 6.00 Build 43363)  -->
<!DOCTYPE svg PUBLIC "-//W3C//DTD SVG 1.1//EN" "http://www.w3.org/Graphics/SVG/1.1/DTD/svg11.dtd">
<svg version="1.1" id="Layer_1" xmlns="http://www.w3.org/2000/svg" xmlns:xlink="http://www.w3.org/1999/xlink" x="0px" y="0px"
	 width="283.465px" height="283.465px" viewBox="0 0 283.465 283.465" enable-background="new 0 0 283.465 283.465"
	 xml:space="preserve">
<path fill="#DD4814" d="M180.708,182.864v-76.567h-14.156v7.072h3.518v7.086h-14.174v-7.086h3.569v-7.072h-14.173v7.072h3.518v7.086
	h-14.174v-7.086h3.57v-7.072h-14.173v7.072h3.491v7.086h-14.174v-7.086h3.596v-7.072h-14.189v76.569
	c-10.905-10.34-17.717-24.955-17.717-41.134c0-31.26,25.432-56.692,56.692-56.692c31.261,0,56.694,25.432,56.694,56.692
	C198.425,157.909,191.613,172.526,180.708,182.864z M141.732,173.64c9.769,0,17.716-7.949,17.716-17.717h-7.086
	c0,5.861-4.769,10.629-10.63,10.629s-10.63-4.768-10.63-10.629h-7.087C124.016,165.69,131.963,173.64,141.732,173.64L141.732,173.64
	z"/>
</svg>
