<?xml version="1.0" encoding="utf-8"?>
<!-- Generator: Adobe Illustrator 14.0.0, SVG Export Plug-In . SVG Version: 6.00 Build 43363)  -->
<!DOCTYPE svg PUBLIC "-//W3C//DTD SVG 1.1//EN" "http://www.w3.org/Graphics/SVG/1.1/DTD/svg11.dtd">
<svg version="1.1" id="Layer_1" xmlns="http://www.w3.org/2000/svg" xmlns:xlink="http://www.w3.org/1999/xlink" x="0px" y="0px"
	 width="283.465px" height="283.465px" viewBox="0 0 283.465 283.465" enable-background="new 0 0 283.465 283.465"
	 xml:space="preserve">
<path fill="#DD4814" d="M141.733,85.04c-31.26,0-56.692,25.433-56.692,56.693c0,31.259,25.432,56.692,56.692,56.692
	c9.946,0,19.749-2.629,28.348-7.604c2.189-1.267,3.537-3.604,3.537-6.134v-14.593h-3.683c-1.957,0-3.544-1.587-3.544-3.544
	c0-1.956,1.587-3.543,3.544-3.543h3.683v-14.172h17.718c3.7,0,6.737-2.836,7.058-6.453c0.021-0.217,0.03-0.434,0.03-0.649
	C198.424,110.472,172.992,85.04,141.733,85.04z M164.108,142.826c-4.595,0-8.443-3.234-9.404-7.546
	c-1.751,0.914-3.736,1.438-5.844,1.438c-6.997,0-12.689-5.692-12.689-12.689c0-6.997,5.692-12.689,12.689-12.689
	c6.996,0,12.688,5.692,12.688,12.689c0,0.015-0.002,0.029-0.002,0.044c0,0.028,0.008,0.055,0.008,0.083v9.027
	c0,1.409,1.146,2.556,2.554,2.556s2.555-1.146,2.555-2.556l-0.005-9.153c0-9.815-7.983-17.8-17.798-17.8
	s-17.797,7.984-17.797,17.798c0,9.815,7.982,17.799,17.797,17.799h6.105c1.957,0,3.543,1.586,3.543,3.543s-1.586,3.544-3.543,3.544
	h-6.105c-13.722,0-24.884-11.164-24.884-24.886c0-13.721,11.162-24.885,24.884-24.885s24.886,11.164,24.886,24.885l0.004,9.152
	C173.75,138.5,169.425,142.826,164.108,142.826z M154.462,124.029c0,3.09-2.513,5.603-5.602,5.603c-3.09,0-5.602-2.513-5.602-5.603
	c0-3.089,2.512-5.603,5.602-5.603C151.949,118.426,154.462,120.939,154.462,124.029z"/>
</svg>
