<?xml version="1.0" encoding="utf-8"?>
<!-- Generator: Adobe Illustrator 14.0.0, SVG Export Plug-In . SVG Version: 6.00 Build 43363)  -->
<!DOCTYPE svg PUBLIC "-//W3C//DTD SVG 1.1//EN" "http://www.w3.org/Graphics/SVG/1.1/DTD/svg11.dtd">
<svg version="1.1" id="Layer_1" xmlns="http://www.w3.org/2000/svg" xmlns:xlink="http://www.w3.org/1999/xlink" x="0px" y="0px"
	 width="283.465px" height="283.465px" viewBox="0 0 283.465 283.465" enable-background="new 0 0 283.465 283.465"
	 xml:space="preserve">
<path fill="#DD4814" d="M198.412,141.731c0-31.26-25.431-56.692-56.688-56.692c-31.256,0-56.684,25.432-56.684,56.692
	c0,31.26,25.428,56.695,56.684,56.695h14.193c3.912,0,7.086-3.174,7.086-7.087c0-3.915-3.174-7.087-7.086-7.087h-14.193
	c-23.441,0-42.514-19.075-42.514-42.521s19.073-42.519,42.514-42.519c23.445,0,42.515,19.073,42.515,42.523l0.015,21.275
	c0,3.908-3.18,7.087-7.084,7.087c-3.908,0-7.088-3.179-7.088-7.087l-0.012,0.005v-20.417v-0.867
	c0-15.63-12.718-28.346-28.344-28.346c-15.629,0-28.344,12.715-28.344,28.346c0,15.631,12.715,28.346,28.344,28.346
	c5.259,0,10.189-1.44,14.416-3.948l-0.003,0.002c1.513,10.249,10.367,18.139,21.03,18.139c11.721,0,21.257-9.538,21.257-21.265
	L198.412,141.731z M141.732,155.904c-7.815,0-14.173-6.357-14.173-14.172c0-7.816,6.358-14.174,14.173-14.174
	c7.812,0,14.174,6.358,14.174,14.174C155.906,149.547,149.544,155.904,141.732,155.904z"/>
</svg>
