<?xml version="1.0" encoding="utf-8"?>
<!-- Generator: Adobe Illustrator 14.0.0, SVG Export Plug-In . SVG Version: 6.00 Build 43363)  -->
<!DOCTYPE svg PUBLIC "-//W3C//DTD SVG 1.1//EN" "http://www.w3.org/Graphics/SVG/1.1/DTD/svg11.dtd">
<svg version="1.1" id="Layer_1" xmlns="http://www.w3.org/2000/svg" xmlns:xlink="http://www.w3.org/1999/xlink" x="0px" y="0px"
	 width="283.465px" height="283.465px" viewBox="0 0 283.465 283.465" enable-background="new 0 0 283.465 283.465"
	 xml:space="preserve">
<g>
	<path fill="#DD4814" d="M131.086,124.034c0,1.956-1.586,3.544-3.545,3.544c-1.955,0-3.541-1.588-3.541-3.544
		c0-1.958,1.586-3.543,3.541-3.543C129.5,120.491,131.086,122.077,131.086,124.034"/>
	<path fill="#DD4814" d="M141.729,85.04c-6.713,0-13.158,1.176-19.142,3.33c22.574,7.478,38.907,28.784,38.907,53.835
		c0,0.133-0.005,0.267-0.012,0.403c-0.201,3.734-3.294,6.699-7.076,6.699h-17.719v13.758h-2.059c-1.958,0-3.544,1.586-3.544,3.544
		c0,1.956,1.586,3.544,3.544,3.544h2.059v15.008c0,2.527-1.347,4.866-3.537,6.134c-2.943,1.703-6.031,3.125-9.216,4.265
		c5.602,1.856,11.585,2.866,17.795,2.866c31.263,0,56.697-25.432,56.697-56.692C198.426,110.472,172.992,85.04,141.729,85.04z
		 M148.841,170.14c-1.96,0-3.542-1.586-3.542-3.542c0-1.958,1.582-3.544,3.542-3.544c1.955,0,3.543,1.586,3.543,3.544
		C152.384,168.554,150.796,170.14,148.841,170.14z M162.995,170.14c-1.958,0-3.542-1.586-3.542-3.542
		c0-1.958,1.584-3.544,3.542-3.544s3.544,1.586,3.544,3.544C166.539,168.554,164.953,170.14,162.995,170.14z M177.251,170.14
		c-1.957,0-3.542-1.586-3.542-3.542c0-1.958,1.585-3.544,3.542-3.544c1.958,0,3.544,1.586,3.544,3.544
		C180.795,168.554,179.209,170.14,177.251,170.14z"/>
	<path fill="#DD4814" d="M127.551,113.4c5.862,0,10.63,4.769,10.63,10.629s-4.768,10.629-10.63,10.629
		c-5.86,0-10.63-4.768-10.63-10.629S121.691,113.4,127.551,113.4 M109.834,124.03c0,9.768,7.948,17.715,17.717,17.715
		s17.719-7.947,17.719-17.715c0-9.769-7.949-17.717-17.715-17.717H97.501c-1.792,2.231-3.418,4.6-4.86,7.087h20.746
		C111.159,116.362,109.834,120.044,109.834,124.03"/>
</g>
</svg>
