<?xml version="1.0" encoding="utf-8"?>
<!-- Generator: Adobe Illustrator 14.0.0, SVG Export Plug-In . SVG Version: 6.00 Build 43363)  -->
<!DOCTYPE svg PUBLIC "-//W3C//DTD SVG 1.1//EN" "http://www.w3.org/Graphics/SVG/1.1/DTD/svg11.dtd">
<svg version="1.1" id="Layer_1" xmlns="http://www.w3.org/2000/svg" xmlns:xlink="http://www.w3.org/1999/xlink" x="0px" y="0px"
	 width="283.465px" height="283.465px" viewBox="0 0 283.465 283.465" enable-background="new 0 0 283.465 283.465"
	 xml:space="preserve">
<path fill="#DD4814" d="M181.898,140.313c-0.939,0-1.841-0.373-2.506-1.037l-30.067-30.061l-37.632,37.622
	c-1.038,1.037-2.398,1.557-3.759,1.557c-1.36,0-2.721-0.52-3.759-1.557c-2.076-2.076-2.076-5.441,0-7.516l40.087-40.077
	c0.018-0.018,0.028-0.038,0.046-0.056l12.197-12.195c-4.765-1.279-9.724-1.953-14.79-1.953c-15.145,0-29.384,5.897-40.094,16.605
	c-22.11,22.104-22.11,58.07,0,80.175c10.711,10.708,24.952,16.605,40.099,16.605c15.146,0,29.387-5.898,40.096-16.605
	c10.711-10.708,16.609-24.944,16.608-40.086c0-5.006-0.659-9.908-1.91-14.621L184.41,139.27
	C183.746,139.937,182.854,140.327,181.898,140.313z M133.933,144.121c-1.361,0-2.722-0.519-3.76-1.556
	c-2.076-2.075-2.076-5.441,0-7.517l15.037-15.033c2.076-2.076,5.442-2.076,7.519,0c2.076,2.075,2.076,5.44,0,7.517l-15.037,15.033
	C136.654,143.603,135.293,144.121,133.933,144.121z M144.794,154.982c-1.36,0-2.721-0.52-3.759-1.558
	c-2.075-2.074-2.075-5.441,0-7.516l15.037-15.033c2.076-2.076,5.442-2.076,7.519,0c2.076,2.075,2.076,5.44,0,7.517l-15.037,15.032
	C147.515,154.463,146.154,154.982,144.794,154.982z M174.453,149.251l-15.037,15.032c-1.038,1.038-2.398,1.558-3.759,1.558
	s-2.722-0.52-3.76-1.558c-2.075-2.074-2.075-5.44,0-7.516l15.037-15.033c2.076-2.075,5.442-2.075,7.519,0
	C176.529,143.81,176.529,147.176,174.453,149.251z"/>
</svg>
