<?xml version="1.0" encoding="utf-8"?>
<!-- Generator: Adobe Illustrator 14.0.0, SVG Export Plug-In . SVG Version: 6.00 Build 43363)  -->
<!DOCTYPE svg PUBLIC "-//W3C//DTD SVG 1.1//EN" "http://www.w3.org/Graphics/SVG/1.1/DTD/svg11.dtd">
<svg version="1.1" id="Layer_1" xmlns="http://www.w3.org/2000/svg" xmlns:xlink="http://www.w3.org/1999/xlink" x="0px" y="0px"
	 width="283.465px" height="283.465px" viewBox="0 0 283.465 283.465" enable-background="new 0 0 283.465 283.465"
	 xml:space="preserve">
<path fill="#DD4814" d="M159.359,113.267c0,1.947-1.58,3.532-3.525,3.532c-1.952,0-3.534-1.585-3.534-3.532
	c0-1.949,1.582-3.526,3.534-3.526C157.779,109.74,159.359,111.317,159.359,113.267z M215.809,137.989v12.359
	c0,3.898-3.16,7.059-7.06,7.059c-3.896,0-7.062-3.16-7.062-7.059c0-2.319-1.499-4.289-3.577-5.007
	c-1.257,18.926-11.789,36.145-28.115,45.576c1.084,0.002,2.1,0.251,3.011,0.689c2.413,1.117,4.085,3.558,4.092,6.393
	c0.005,3.661-2.779,6.685-6.36,7.037h-0.006c-0.186,0.017-0.378,0.032-0.567,0.033h-0.007h-0.012h-0.012
	c-0.024,0-0.041,0-0.064,0.002h-0.062h-0.037h-56.382h-0.103c-3.893-0.021-7.033-3.182-7.027-7.072
	c0.01-3.894,3.169-7.046,7.059-7.046h0.031c-0.003-0.002-0.014-0.039-0.022-0.052c-16.325-9.46-26.84-26.684-28.095-45.589
	c-2.12,0.695-3.654,2.69-3.654,5.035c0,3.898-3.163,7.059-7.061,7.059c-3.9,0-7.058-3.16-7.058-7.059v-12.359
	c0-1.873,0.743-3.669,2.066-4.992c1.324-1.325,3.121-2.069,4.991-2.069h0.002l11.584,0.006
	c4.967-26.101,27.948-45.895,55.469-45.895c27.521,0,50.508,19.794,55.477,45.895l11.5-0.006h0.003c1.871,0,3.664,0.744,4.991,2.069
	C215.065,134.32,215.809,136.117,215.809,137.989z M145.277,137.901c0-1.951-1.58-3.531-3.521-3.531
	c-1.952,0-3.534,1.58-3.534,3.531v10.589c0,1.945,1.582,3.526,3.534,3.526c1.941,0,3.521-1.581,3.521-3.526V137.901z
	 M177.018,113.247c0-11.208-9.476-20.294-21.169-20.294c-5.42,0-10.358,1.95-14.103,5.159c-3.745-3.209-8.688-5.159-14.1-5.159
	c-11.698,0-21.182,9.086-21.182,20.294c0,11.207,9.484,20.295,21.182,20.295c5.413,0,10.355-1.954,14.1-5.162
	c3.745,3.208,8.683,5.162,14.103,5.162C167.542,133.542,177.018,124.454,177.018,113.247z M127.627,109.74
	c-1.951,0-3.53,1.577-3.53,3.526c0,1.947,1.58,3.532,3.53,3.532c1.949,0,3.527-1.585,3.527-3.532
	C131.154,111.317,129.576,109.74,127.627,109.74z"/>
</svg>
