<?xml version="1.0" encoding="utf-8"?>
<!-- Generator: Adobe Illustrator 14.0.0, SVG Export Plug-In . SVG Version: 6.00 Build 43363)  -->
<!DOCTYPE svg PUBLIC "-//W3C//DTD SVG 1.1//EN" "http://www.w3.org/Graphics/SVG/1.1/DTD/svg11.dtd">
<svg version="1.1" id="Layer_1" xmlns="http://www.w3.org/2000/svg" xmlns:xlink="http://www.w3.org/1999/xlink" x="0px" y="0px"
	 width="283.465px" height="283.465px" viewBox="0 0 283.465 283.465" enable-background="new 0 0 283.465 283.465"
	 xml:space="preserve">
<path fill="#DD4814" d="M141.733,85.04c-31.311,0-56.693,25.382-56.693,56.693c0,31.311,25.383,56.691,56.693,56.691
	s56.691-25.381,56.691-56.691C198.425,110.422,173.044,85.04,141.733,85.04z M158.74,112.146c6.85,0,12.401,5.553,12.401,12.4
	c0,6.852-5.552,12.403-12.401,12.403c-6.848,0-12.401-5.552-12.401-12.403C146.339,117.698,151.893,112.146,158.74,112.146z
	 M124.725,112.146c6.85,0,12.401,5.553,12.401,12.4c0,6.852-5.552,12.403-12.401,12.403c-6.848,0-12.401-5.552-12.401-12.403
	C112.323,117.698,117.877,112.146,124.725,112.146z M183.546,171.319H149.53h-15.593H99.922c-1.956,0-3.544-1.588-3.544-3.543
	c0-15.629,12.717-28.348,28.347-28.348c6.376,0,12.267,2.118,17.008,5.686c4.741-3.567,10.632-5.686,17.008-5.686
	c15.63,0,28.347,12.719,28.347,28.348C187.087,169.731,185.501,171.319,183.546,171.319z"/>
</svg>
