<?xml version="1.0" encoding="utf-8"?>
<!-- Generator: Adobe Illustrator 14.0.0, SVG Export Plug-In . SVG Version: 6.00 Build 43363)  -->
<!DOCTYPE svg PUBLIC "-//W3C//DTD SVG 1.1//EN" "http://www.w3.org/Graphics/SVG/1.1/DTD/svg11.dtd">
<svg version="1.1" id="Layer_1" xmlns="http://www.w3.org/2000/svg" xmlns:xlink="http://www.w3.org/1999/xlink" x="0px" y="0px"
	 width="283.465px" height="283.465px" viewBox="0 0 283.465 283.465" enable-background="new 0 0 283.465 283.465"
	 xml:space="preserve">
<path fill="#DD4814" d="M177.479,166.912c0,9.79-7.966,17.756-17.756,17.756c-9.791,0-17.757-7.966-17.757-17.756
	c0-9.186,7.011-16.763,15.962-17.666v-5.234c0-0.718,0.433-1.365,1.096-1.641c0.662-0.273,1.427-0.124,1.936,0.385l8.691,8.692
	c0.693,0.692,0.693,1.818,0,2.512l-8.691,8.691c-0.34,0.339-0.794,0.52-1.256,0.52c-0.229,0-0.46-0.044-0.68-0.135
	c-0.663-0.275-1.096-0.923-1.096-1.642v-4.975c-5.021,0.857-8.859,5.23-8.859,10.492c0,5.874,4.779,10.653,10.654,10.653
	c5.874,0,10.653-4.779,10.653-10.653c0-1.961,1.59-3.551,3.551-3.551C175.889,163.361,177.479,164.951,177.479,166.912z
	 M173.829,117.079h19.101c-9.243-18.893-28.661-31.938-51.073-31.938c-7.516,0-14.688,1.479-21.261,4.143v64.852h-14.206V97.618
	c-13.002,10.421-21.351,26.421-21.351,44.344c0,28.928,21.734,52.86,49.728,56.363v-81.246h10.65v7.092h-3.523v7.102H156.1v-7.102
	h-3.579v-7.092h14.206v7.092h-3.578v7.102h14.205v-7.102h-3.524V117.079z M113.394,172.185l-7.151-12.386h14.302L113.394,172.185z"
	/>
</svg>
