<?xml version="1.0" encoding="utf-8"?>
<!-- Generator: Adobe Illustrator 14.0.0, SVG Export Plug-In . SVG Version: 6.00 Build 43363)  -->
<!DOCTYPE svg PUBLIC "-//W3C//DTD SVG 1.1//EN" "http://www.w3.org/Graphics/SVG/1.1/DTD/svg11.dtd">
<svg version="1.1" id="Layer_1" xmlns="http://www.w3.org/2000/svg" xmlns:xlink="http://www.w3.org/1999/xlink" x="0px" y="0px"
	 width="283.465px" height="283.465px" viewBox="0 0 283.465 283.465" enable-background="new 0 0 283.465 283.465"
	 xml:space="preserve">
<g>
	<path fill="#DD4814" d="M141.733,99.212c-23.445,0-42.521,19.073-42.521,42.52c0,23.447,19.075,42.521,42.521,42.521
		c23.446,0,42.519-19.074,42.519-42.521C184.252,118.285,165.179,99.212,141.733,99.212 M141.733,198.426
		c-31.26,0-56.693-25.432-56.693-56.694c0-31.26,25.434-56.693,56.693-56.693c31.259,0,56.692,25.433,56.692,56.693
		C198.425,172.994,172.992,198.426,141.733,198.426"/>
	<path fill="#DD4814" d="M171.587,132.08c-0.238-0.731-0.893-1.241-1.686-1.226l-20.354,0.024l-6.268-19.364
		c-0.238-0.73-0.918-1.226-1.688-1.226c-0.767,0-1.447,0.496-1.683,1.226l-6.267,19.364l-20.354-0.024h-0.003
		c-0.767,0-1.446,0.496-1.685,1.226c-0.236,0.73,0.023,1.531,0.646,1.981l16.479,11.945l-6.312,19.348
		c-0.236,0.73,0.023,1.53,0.645,1.982c0.621,0.451,1.461,0.451,2.084-0.001l16.449-11.98l16.454,11.98
		c0.312,0.227,0.678,0.34,1.043,0.34c0.004-0.001,0.009-0.001,0.014,0c0.979,0,1.771-0.793,1.771-1.772
		c0-0.265-0.06-0.518-0.164-0.743l-6.249-19.153l16.48-11.945C171.563,133.612,171.825,132.811,171.587,132.08"/>
</g>
</svg>
