<?xml version="1.0" encoding="utf-8"?>
<!-- Generator: Adobe Illustrator 14.0.0, SVG Export Plug-In . SVG Version: 6.00 Build 43363)  -->
<!DOCTYPE svg PUBLIC "-//W3C//DTD SVG 1.1//EN" "http://www.w3.org/Graphics/SVG/1.1/DTD/svg11.dtd">
<svg version="1.1" id="Layer_1" xmlns="http://www.w3.org/2000/svg" xmlns:xlink="http://www.w3.org/1999/xlink" x="0px" y="0px"
	 width="283.465px" height="283.465px" viewBox="0 0 283.465 283.465" enable-background="new 0 0 283.465 283.465"
	 xml:space="preserve">
<path fill="#DD4814" d="M99.212,120.471c0-23.445,19.074-42.519,42.519-42.519c23.447,0,42.521,19.074,42.521,42.519h14.174
	c0-31.26-25.434-56.692-56.695-56.692c-31.26,0-56.691,25.432-56.691,56.692v14.173v7.086v0.2h0.002
	c0.108,31.168,25.496,56.494,56.689,56.494c31.261,0,56.695-25.434,56.695-56.694v-7.086H99.212V120.471z M141.731,145.289
	c5.872,0,10.631,4.76,10.631,10.631c0,4.622-2.956,8.545-7.077,10.008v18.304c0,1.957-1.587,3.543-3.544,3.543
	c-1.957,0-3.543-1.586-3.543-3.543v-18.297c-4.131-1.458-7.096-5.386-7.096-10.015C131.102,150.049,135.861,145.289,141.731,145.289
	z"/>
</svg>
