<?xml version="1.0" encoding="utf-8"?>
<!-- Generator: Adobe Illustrator 14.0.0, SVG Export Plug-In . SVG Version: 6.00 Build 43363)  -->
<!DOCTYPE svg PUBLIC "-//W3C//DTD SVG 1.1//EN" "http://www.w3.org/Graphics/SVG/1.1/DTD/svg11.dtd">
<svg version="1.1" id="Layer_1" xmlns="http://www.w3.org/2000/svg" xmlns:xlink="http://www.w3.org/1999/xlink" x="0px" y="0px"
	 width="283.465px" height="283.465px" viewBox="0 0 283.465 283.465" enable-background="new 0 0 283.465 283.465"
	 xml:space="preserve">
<path fill="#DD4814" d="M194.361,128c-3.674-3.652-8.554-5.662-13.735-5.662c-10.746,0-19.488,8.742-19.488,19.487
	c0,2.934,2.38,5.316,5.315,5.316c2.934,0,5.315-2.382,5.315-5.316c0-4.885,3.974-8.858,8.857-8.858c2.356,0,4.574,0.915,6.245,2.575
	c2.083,2.069,5.448,2.058,7.515-0.025C196.455,133.434,196.445,130.069,194.361,128z M166.463,145.366
	c-1.956,0-3.544-1.586-3.544-3.543c0-1.956,1.588-3.543,3.544-3.543s3.543,1.587,3.543,3.543
	C170.006,143.78,168.419,145.366,166.463,145.366z M190.808,170.135c-9.81,16.915-28.115,28.291-49.077,28.291
	c-31.31,0-56.692-25.382-56.692-56.694c0-31.311,25.382-56.693,56.692-56.693c20.989,0,39.313,11.406,49.115,28.356l0.005-0.009
	l-58.042,0.005c-2.936,0-5.314,2.382-5.314,5.315c0,2.937,2.379,5.314,5.314,5.314h25.699c-1.175,1.465-2.207,3.049-3.077,4.728
	v0.002h-22.622c-2.936,0-5.314,2.382-5.314,5.314c0,2.938,2.379,5.315,5.314,5.315h19.568c-0.064,0.775-0.098,1.56-0.098,2.351
	c0,0.801,0.035,1.595,0.1,2.378v-0.001h-19.57c-2.936,0-5.314,2.379-5.314,5.315c0,2.936,2.379,5.315,5.314,5.315h22.635v-0.004
	c0.871,1.683,1.907,3.267,3.086,4.731h-25.721c-2.936,0-5.314,2.378-5.314,5.315c0,2.934,2.379,5.314,5.314,5.314h57.934
	L190.808,170.135z"/>
</svg>
