<?xml version="1.0" encoding="utf-8"?>
<!-- Generator: Adobe Illustrator 14.0.0, SVG Export Plug-In . SVG Version: 6.00 Build 43363)  -->
<!DOCTYPE svg PUBLIC "-//W3C//DTD SVG 1.1//EN" "http://www.w3.org/Graphics/SVG/1.1/DTD/svg11.dtd">
<svg version="1.1" id="Layer_1" xmlns="http://www.w3.org/2000/svg" xmlns:xlink="http://www.w3.org/1999/xlink" x="0px" y="0px"
	 width="283.465px" height="283.465px" viewBox="0 0 283.465 283.465" enable-background="new 0 0 283.465 283.465"
	 xml:space="preserve">
<path fill="#DD4814" d="M141.731,85.04c26.398,0,48.64,18.135,54.921,42.602h-14.812c-5.827-16.539-21.602-28.429-40.11-28.429
	c-18.508,0-34.281,11.89-40.108,28.429h-14.81C93.093,103.175,115.333,85.04,141.731,85.04 M198.425,141.73
	c0,31.262-25.433,56.695-56.694,56.695c-31.26,0-56.691-25.433-56.691-56.695c0-3.914,3.173-7.088,7.087-7.088h99.211
	C195.252,134.642,198.425,137.816,198.425,141.73z M113.428,166.467h-6.256l0.047,0.058l-0.055-0.062
	c1.828,2.548,3.93,4.886,6.264,6.973l-0.043-0.047l0.043,0.043V166.467z M113.428,148.817l-13.625-0.001
	c0.625,3.703,1.729,7.247,3.248,10.562l0.002,0.003h10.375V148.817z M138.211,166.512l-17.697,0.001l0.001,12.098l0.058,0.022
	l-0.06-0.018c5.291,3.059,11.295,5.011,17.698,5.538l-0.043-0.014l0.043,0.011V166.512z M138.212,148.863l-17.697-0.001
	l-0.001,10.563h17.698V148.863z M145.298,159.427h17.698v-10.563h-17.698V159.427z M162.998,178.587l-0.065,0.02l0.064-0.022
	l-0.001-12.071h-17.698l0.001,17.633l0.043-0.01l-0.043,0.013C151.703,183.614,157.709,181.654,162.998,178.587z M176.297,166.514
	l-0.038,0.043L176.297,166.514l-6.214-0.001v6.923l0.068-0.072l-0.065,0.073C172.396,171.365,174.482,169.043,176.297,166.514z
	 M183.661,148.816h-13.578v0.001l-0.001,10.563h10.329l0.001,0.001C181.931,156.065,183.036,152.521,183.661,148.816z"/>
</svg>
