<?xml version="1.0" encoding="utf-8"?>
<!-- Generator: Adobe Illustrator 14.0.0, SVG Export Plug-In . SVG Version: 6.00 Build 43363)  -->
<!DOCTYPE svg PUBLIC "-//W3C//DTD SVG 1.1//EN" "http://www.w3.org/Graphics/SVG/1.1/DTD/svg11.dtd">
<svg version="1.1" id="Layer_1" xmlns="http://www.w3.org/2000/svg" xmlns:xlink="http://www.w3.org/1999/xlink" x="0px" y="0px"
	 width="283.465px" height="283.465px" viewBox="0 0 283.465 283.465" enable-background="new 0 0 283.465 283.465"
	 xml:space="preserve">
<path fill="#DD4814" d="M141.708,85.039c-23.062,0-42.937,13.851-51.784,33.663h24.867c-0.961,1.123-1.855,2.305-2.672,3.543H88.468
	c-0.842,2.295-1.525,4.664-2.068,7.085h22.112c-0.432,1.155-0.809,2.336-1.12,3.544H85.714c-0.365,2.318-0.577,4.685-0.651,7.087
	h21.259c-0.029,0.587-0.044,1.177-0.044,1.77c0,0.595,0.016,1.186,0.044,1.773H85.062c0.074,2.401,0.287,4.769,0.652,7.086h21.68
	c0.311,1.208,0.688,2.389,1.12,3.544H86.401c0.543,2.422,1.227,4.792,2.069,7.087h23.652c0.817,1.238,1.712,2.421,2.674,3.544
	H89.927c8.847,19.812,28.721,33.659,51.782,33.659c31.261,0,56.694-25.433,56.694-56.693S172.97,85.039,141.708,85.039z
	 M136.399,116.953c0-2.935,2.38-5.315,5.315-5.315c2.936,0,5.315,2.38,5.315,5.315v24.909c0,2.935-2.38,5.314-5.315,5.314
	c-2.935,0-5.315-2.38-5.315-5.314V116.953z M160.558,160.562c-5.021,5.021-11.693,7.783-18.791,7.783c-0.001,0-0.001,0-0.002,0
	c-7.099,0-13.772-2.765-18.791-7.785c-9.965-9.965-10.417-25.994-1.03-36.49c1.957-2.189,5.318-2.376,7.504-0.419
	c2.188,1.957,2.376,5.317,0.419,7.505c-5.629,6.296-5.357,15.91,0.623,21.888c3.012,3.013,7.016,4.672,11.275,4.672
	s8.263-1.658,11.274-4.669c5.958-5.959,6.247-15.556,0.66-21.849c-1.948-2.196-1.749-5.556,0.445-7.504
	c2.195-1.951,5.555-1.75,7.504,0.445C170.966,134.633,170.487,150.631,160.558,160.562z"/>
</svg>
