<?xml version="1.0" encoding="utf-8"?>
<!-- Generator: Adobe Illustrator 14.0.0, SVG Export Plug-In . SVG Version: 6.00 Build 43363)  -->
<!DOCTYPE svg PUBLIC "-//W3C//DTD SVG 1.1//EN" "http://www.w3.org/Graphics/SVG/1.1/DTD/svg11.dtd">
<svg version="1.1" id="Layer_1" xmlns="http://www.w3.org/2000/svg" xmlns:xlink="http://www.w3.org/1999/xlink" x="0px" y="0px"
	 width="283.465px" height="283.465px" viewBox="0 0 283.465 283.465" enable-background="new 0 0 283.465 283.465"
	 xml:space="preserve">
<g>
	<path fill="#DD4814" d="M116.161,141.185c0,1.958-1.587,3.543-3.543,3.543c-1.959,0-3.545-1.586-3.545-3.543
		c0-1.957,1.586-3.543,3.545-3.543C114.574,137.642,116.161,139.228,116.161,141.185"/>
	<path fill="#DD4814" d="M109.875,94.831v18.662v-0.001c-8.111,1.622-14.223,8.785-14.223,17.376l-0.033,21.5
		c0,9.784,7.93,17.712,17.713,17.712s17.719-7.928,17.719-17.712l0.033-21.5c0-8.554-6.062-15.691-14.121-17.353v0.001V90.739
		h-0.035c7.494-3.651,15.908-5.699,24.804-5.699c20.972,0,39.283,11.388,49.092,28.317l-0.055,0.023h-47.266
		c-2.937,0-5.315,2.38-5.315,5.315s2.378,5.315,5.315,5.315h25.708l-0.007-0.004c-1.175,1.464-2.208,3.048-3.076,4.73v0.003h-22.625
		c-2.937,0-5.315,2.38-5.315,5.315s2.378,5.313,5.315,5.313h19.568h-0.001c-0.063,0.776-0.097,1.56-0.097,2.352
		c0,0.799,0.033,1.592,0.099,2.377h-19.569c-2.937,0-5.315,2.38-5.315,5.314c0,2.937,2.378,5.315,5.315,5.315h22.638v0.003
		c0.872,1.681,1.907,3.264,3.083,4.726v-0.001h-25.721c-2.937,0-5.315,2.38-5.315,5.315s2.378,5.314,5.315,5.314h47.297l0.026,0.017
		c-9.806,16.934-28.12,28.325-49.095,28.325c-31.31,0-56.692-25.383-56.692-56.694c0-19.499,9.845-36.698,24.833-46.901H109.875z"/>
</g>
</svg>
