<?xml version="1.0" encoding="utf-8"?>
<!-- Generator: Adobe Illustrator 14.0.0, SVG Export Plug-In . SVG Version: 6.00 Build 43363)  -->
<!DOCTYPE svg PUBLIC "-//W3C//DTD SVG 1.1//EN" "http://www.w3.org/Graphics/SVG/1.1/DTD/svg11.dtd">
<svg version="1.1" id="Layer_1" xmlns="http://www.w3.org/2000/svg" xmlns:xlink="http://www.w3.org/1999/xlink" x="0px" y="0px"
	 width="283.465px" height="283.465px" viewBox="0 0 283.465 283.465" enable-background="new 0 0 283.465 283.465"
	 xml:space="preserve">
<path fill="#DD4814" d="M204.055,85.04h-12.437c-0.064,0-0.13,0.007-0.193,0.009h-49.545h-0.001
	c-31.341,0-56.839,25.498-56.839,56.84c0,28.928,21.725,52.878,49.715,56.394v39.829h14.212v-39.824
	c27.991-3.497,49.727-27.432,49.751-56.353c0-0.017,0.001-0.031,0.001-0.046v-37.154c0.002-0.052,0.01-0.104,0.01-0.156
	c0-2.939,2.389-5.33,5.326-5.33c3.925,0,7.107-3.181,7.107-7.105C211.162,88.22,207.979,85.04,204.055,85.04z M155.723,155.724
	c-6.035,6.033-14.061,9.357-22.599,9.357h-0.002c-2.794,0-5.578-0.365-8.273-1.084c-2.459-0.654-4.379-2.574-5.033-5.033
	c-2.936-11.004,0.234-22.834,8.275-30.875c6.035-6.034,14.062-9.356,22.599-9.356c2.794,0,5.579,0.362,8.272,1.083
	c2.46,0.655,4.378,2.575,5.033,5.032C166.932,135.852,163.762,147.681,155.723,155.724z M177.628,102.761
	c-1.961,0-3.554-1.59-3.554-3.553c0-1.961,1.593-3.552,3.554-3.552c1.962,0,3.553,1.591,3.553,3.552
	C181.181,101.171,179.59,102.761,177.628,102.761z"/>
</svg>
