<?xml version="1.0" encoding="utf-8"?>
<!-- Generator: Adobe Illustrator 14.0.0, SVG Export Plug-In . SVG Version: 6.00 Build 43363)  -->
<!DOCTYPE svg PUBLIC "-//W3C//DTD SVG 1.1//EN" "http://www.w3.org/Graphics/SVG/1.1/DTD/svg11.dtd">
<svg version="1.1" id="Layer_1" xmlns="http://www.w3.org/2000/svg" xmlns:xlink="http://www.w3.org/1999/xlink" x="0px" y="0px"
	 width="283.465px" height="283.465px" viewBox="0 0 283.465 283.465" enable-background="new 0 0 283.465 283.465"
	 xml:space="preserve">
<path fill="#DD4814" d="M181.82,101.644c-10.707-10.708-24.943-16.605-40.086-16.605c-15.142,0-29.379,5.897-40.086,16.605
	c-10.709,10.708-16.608,24.944-16.608,40.088c0,15.143,5.898,29.38,16.607,40.087c10.708,10.708,24.945,16.605,40.087,16.605
	s29.379-5.896,40.086-16.604c10.708-10.708,16.605-24.945,16.605-40.088C198.426,126.589,192.528,112.352,181.82,101.644z
	 M138.205,176.329c-8.302-8.302-21.762-8.302-30.065,0.001v-31.89c8.303-8.302,21.763-8.302,30.065,0V176.329z M138.205,137.361
	c-8.302-8.303-21.762-8.303-30.065,0v-31.89c8.303-8.303,21.763-8.303,30.065,0V137.361z M175.352,179.845
	c-8.302,8.303-21.762,8.303-30.064,0v-31.89c8.303,8.303,21.763,8.303,30.064,0.001V179.845z M175.352,140.876
	c-8.302,8.302-21.762,8.302-30.064,0v-31.889c8.303,8.302,21.763,8.302,30.064,0V140.876z"/>
</svg>
