<?xml version="1.0" encoding="utf-8"?>
<!-- Generator: Adobe Illustrator 14.0.0, SVG Export Plug-In . SVG Version: 6.00 Build 43363)  -->
<!DOCTYPE svg PUBLIC "-//W3C//DTD SVG 1.1//EN" "http://www.w3.org/Graphics/SVG/1.1/DTD/svg11.dtd">
<svg version="1.1" id="Layer_1" xmlns="http://www.w3.org/2000/svg" xmlns:xlink="http://www.w3.org/1999/xlink" x="0px" y="0px"
	 width="283.465px" height="283.465px" viewBox="0 0 283.465 283.465" enable-background="new 0 0 283.465 283.465"
	 xml:space="preserve">
<path fill="#DD4814" d="M141.731,198.426c-31.26,0-56.692-25.433-56.692-56.694c0-31.26,25.432-56.693,56.692-56.693
	c31.261,0,56.695,25.433,56.695,56.693C198.426,172.993,172.992,198.426,141.731,198.426L141.731,198.426z M141.731,99.212
	c-23.445,0-42.519,19.075-42.519,42.52c0,23.446,19.073,42.52,42.519,42.52c23.447,0,42.521-19.074,42.521-42.52
	C184.252,118.287,165.178,99.212,141.731,99.212L141.731,99.212z M162.912,134.65h-14.119v-14.173c0-3.914-3.173-7.087-7.087-7.087
	c-3.914,0-7.087,3.173-7.087,7.087v14.173h-14.227c-3.914,0-7.087,3.173-7.087,7.087c0,3.915,3.173,7.087,7.087,7.087h14.227v14.172
	c0,3.914,3.173,7.087,7.087,7.087c3.915,0,7.087-3.173,7.087-7.087v-14.172h14.119c3.914,0,7.087-3.173,7.087-7.087
	C169.999,137.823,166.826,134.65,162.912,134.65z"/>
</svg>
